<svg width="50" height="50" viewBox="0 0 50 50" fill="none" xmlns="http://www.w3.org/2000/svg">
<path fill-rule="evenodd" clip-rule="evenodd" d="M14 3C7.92487 3 3 7.92486 3 14V36.8966C3 42.9717 7.92486 47.8966 14 47.8966H24.6143V26.5645H20.6836V21.584H24.6143V19.2402C24.6143 17.2383 25.0049 15.5537 25.7861 14.1865C26.5837 12.8031 27.6986 11.7614 29.1309 11.0615C30.5794 10.3454 32.2965 9.9873 34.2822 9.9873C34.9333 9.9873 35.5599 10.0361 36.1621 10.1338C36.7643 10.2152 37.3503 10.321 37.9199 10.4512L37.8467 15.749C37.5374 15.6676 37.2119 15.6107 36.8701 15.5781C36.5283 15.5456 36.1296 15.5293 35.6738 15.5293C34.8275 15.5293 34.1032 15.6758 33.501 15.9688C32.915 16.2454 32.4674 16.6605 32.1582 17.2139C31.849 17.7673 31.6943 18.4427 31.6943 19.2402V21.584H36.9678V26.5645H31.6943V47.8966H36.8966C42.9717 47.8966 47.8966 42.9717 47.8966 36.8966V14C47.8966 7.92487 42.9717 3 36.8966 3H14Z" fill="black"/>
</svg>
