<?xml version="1.0" encoding="UTF-8"?><svg id="Layer_2" xmlns="http://www.w3.org/2000/svg" width="16" height="16" viewBox="0 0 16 16"><rect width="16" height="16" fill="#c57f4c"/><g><path d="M6.1,11.4l-1.7-3h-.9v3h-1.3V4.5h2.8c.8,0,1.5,.7,1.5,1.5s-.6,1.5-1.5,1.5h-2v-2.2h1.6c.6,0,1,.1,1,.9h0c0-.4-.3-.4-.7-.4h-1.5v1.3h1.6c.6,0,1-.5,1-1.1s-.5-1.1-1-1.1H2.6v6h.4v-3h1.5l1.7,3h.5l-1.7-3c1,0,1.8-.7,1.8-1.7h0c0,.9-.3,1.7-1.2,2l1.8,3.1h-1.4Z" fill="#fff"/><path d="M13.4,11.4l-3.9-6.5h-.4v6h.4V5.8l3.4,5.6h-.5l-2.4-4.1v4.1h-1.3V4.5h1.1l3.6,6V4.9h-.4v4.1l-.4-.7v-3.8h1.3v6.9h-.4Z" fill="#fff"/></g></svg>