<svg width="50" height="50" viewBox="0 0 50 50" fill="none" xmlns="http://www.w3.org/2000/svg">
<path fill-rule="evenodd" clip-rule="evenodd" d="M17 2C8.71573 2 2 8.71573 2 17V33C2 41.2843 8.71573 48 17 48H33C41.2843 48 48 41.2843 48 33V17C48 8.71573 41.2843 2 33 2H17ZM18.034 10.0341H31.8834C36.3017 10.0341 39.8834 13.6158 39.8834 18.0341V31.8835C39.8834 36.3018 36.3017 39.8835 31.8834 39.8835H18.034C13.6157 39.8835 10.034 36.3018 10.034 31.8835V18.0341C10.034 13.6158 13.6157 10.0341 18.034 10.0341ZM7.03397 18.0341C7.03397 11.9589 11.9588 7.03406 18.034 7.03406H31.8834C37.9586 7.03406 42.8834 11.9589 42.8834 18.0341V31.8835C42.8834 37.9587 37.9586 42.8835 31.8834 42.8835H18.034C11.9588 42.8835 7.03397 37.9587 7.03397 31.8835V18.0341ZM37 15.5C37 16.8807 35.8807 18 34.5 18C33.1193 18 32 16.8807 32 15.5C32 14.1193 33.1193 13 34.5 13C35.8807 13 37 14.1193 37 15.5ZM31.2102 24.9587C31.2102 28.4113 28.4113 31.2102 24.9587 31.2102C21.5061 31.2102 18.7072 28.4113 18.7072 24.9587C18.7072 21.5061 21.5061 18.7073 24.9587 18.7073C28.4113 18.7073 31.2102 21.5061 31.2102 24.9587ZM34.2102 24.9587C34.2102 30.0682 30.0682 34.2102 24.9587 34.2102C19.8493 34.2102 15.7072 30.0682 15.7072 24.9587C15.7072 19.8493 19.8493 15.7073 24.9587 15.7073C30.0682 15.7073 34.2102 19.8493 34.2102 24.9587Z" fill="black"/>
</svg>
