<?xml version="1.0" encoding="UTF-8"?><svg id="Layer_1" xmlns="http://www.w3.org/2000/svg" width="444.3" height="89.5" viewBox="0 0 444.3 89.5"><rect x="-5" y="-5" width="454.3" height="99.5" fill="#c57f4c"/><g><path d="M48.9,59.2l-8.2-14.4h-4.1v14.4h-6.2V26.3h13.4c4,0,7.2,3.2,7.2,7.1s-3.1,7.3-7,7.3h-9.5v-10.3h7.7c3,0,4.7,.7,4.7,4.1h-.2c0-1.9-1.7-2-3.1-2h-7v6.2h7.5c2.8,0,4.8-2.6,4.8-5.3s-2.2-5.1-5-5.1h-11.5v28.8h2.1v-14.4h7.2l8.2,14.4h2.4l-8.2-14.4c4.5,0,8.8-3.4,8.8-8.2h.2c0,4.1-1.5,8.3-5.7,9.7l8.5,15h-6.9Z" fill="#fff"/><path d="M79.7,59.2l-2.8-8.3h-9.9l-2.9,8.3h-6.6l11.2-32.9h6.5l-2.3,7,4.7,13.6h-11.6l3.5-10.4,1.2,3.4-1.8,5h5.8l-4-11.6,1.7-4.9h-2.2l-9.9,28.8h2.2l2.8-8.3h13l2.8,8.3h2.2l-8.2-23.9,1.2-3.3,10,29.3h-6.7Z" fill="#fff"/><path d="M112,38.7c-1.5-4.2-4.5-6.4-8.9-6.4s-9,5.4-9,10.5h-.2c0-5.9,2.2-12.6,9.2-12.6s8.2,2.6,10,6.4h2.1c-2.2-4.9-6.8-8.5-12.2-8.5-8.2,0-11.4,7.5-11.4,14.7s5.8,10.6,11.4,10.6,5.6-2.1,7.3-4.5h7.1c-2.2,6-7.9,10.6-14.4,10.6s-15.7-8.2-15.7-16.8h.2c0,8.7,7,14.7,15.4,14.7s8.6-2.8,11-6.4h-2.6c-2.2,2.4-5.1,4.4-8.4,4.4-6.9,0-13.5-5.3-13.5-12.4s3.9-16.8,13.5-16.8,13.2,5.7,15,12.6h-6.1Z" fill="#fff"/><path d="M144.3,59.2v-12.4h2v10.3h2v-12.4h-18.5v14.4h-6.2V26.3h6.2v12.4h14.4v-12.4h6.2v14.4h-2.1v-12.4h-2v12.4h-18.5v-12.4h-2.1v28.8h2.1v-14.4h22.6v16.5h-6.2Z" fill="#fff"/><path d="M158.3,59.2V26.3h20.6v6.2h-14.4v10.3h10.3v-2h-8.2v-2.1h10.3v6.2h-14.4v-14.4h14.4v-2.1h-16.5v28.8h18.5v-2h-16.5v-8.3h2.1v6.2h16.5v6.2h-22.6Z" fill="#fff"/><path d="M186.6,59.2v-2.1h18.5v-2h-18.5V26.3h6.2v24.7h-2V28.4h-2.1v24.7h18.5v6.2h-20.6Z" fill="#fff"/><path d="M246.4,59.2l-18.5-30.9h-2v28.8h2v-24.7l16.1,26.8h-2.5l-11.5-19.4v19.4h-6.2V26.3h5.3l17.3,28.8V28.4h-2v19.4l-2-3.5V26.3h6.2V59.2h-2.1Z" fill="#fff"/><path d="M270.1,59.5c-8.9,0-15.7-8-15.7-16.6h.2c0,8.7,7,14.6,15.4,14.6s13.4-7.2,13.4-14.6-5.8-14.7-13.4-14.7-11.4,7.6-11.4,14.6,5.5,10.6,11.4,10.6,9.2-5.1,9.2-10.5-3.8-10.5-9.2-10.5-8.9,5.4-8.9,10.5h-.2c0-5.8,2.2-12.7,9.2-12.7s11.3,6.4,11.3,12.7-4.4,12.6-11.3,12.6-13.5-5.2-13.5-12.7,4.3-16.7,13.5-16.7,15.5,8.2,15.5,16.8-6.5,16.6-15.5,16.6Z" fill="#fff"/><path d="M310,59.2l-8.2-14.4h-4.1v14.4h-6.2V26.3h13.4c4,0,7.2,3.2,7.2,7.1s-3.1,7.3-7,7.3h-9.5v-10.3h7.7c3,0,4.7,.7,4.7,4.1h-.2c0-1.9-1.7-2-3.1-2h-7v6.2h7.5c2.8,0,4.8-2.6,4.8-5.3s-2.2-5.1-5-5.1h-11.5v28.8h2.1v-14.4h7.2l8.2,14.4h2.4l-8.2-14.4c4.5,0,8.8-3.4,8.8-8.2h.2c0,4.1-1.5,8.3-5.7,9.7l8.5,15h-6.9Z" fill="#fff"/><path d="M347,59.2v-14.1l2.1-4.5v16.5h2.1V31.3l-12.7,27.4-10-18.1v18.7h-6.2V26.3h5.4l10.3,18.8,8.6-18.8h2.2l-10.7,23.3-11.7-21.2h-2.1v28.8h2.1v-24.6l11.9,21.6,12.8-27.9h2V59.2h-6.2Z" fill="#fff"/><path d="M378.9,59.2l-2.8-8.3h-9.9l-2.9,8.3h-6.6l11.2-32.9h6.5l-2.3,7,4.7,13.6h-11.6l3.5-10.4,1.2,3.4-1.8,5h5.8l-4-11.6,1.7-4.9h-2.2l-9.9,28.8h2.2l2.8-8.3h13l2.8,8.3h2.2l-8.2-23.9,1.2-3.3,10,29.3h-6.7Z" fill="#fff"/><path d="M411.8,59.2l-18.5-30.9h-2v28.8h2v-24.7l16.1,26.8h-2.5l-11.5-19.4v19.4h-6.2V26.3h5.3l17.3,28.8V28.4h-2v19.4l-2-3.5V26.3h6.2V59.2h-2.1Z" fill="#fff"/></g></svg>